<?xml version="1.0" encoding="UTF-8" standalone="no"?>
<!-- Created with Inkscape (http://www.inkscape.org/) -->

<svg
   xmlns:dc="http://purl.org/dc/elements/1.1/"
   xmlns:cc="http://creativecommons.org/ns#"
   xmlns:rdf="http://www.w3.org/1999/02/22-rdf-syntax-ns#"
   xmlns:svg="http://www.w3.org/2000/svg"
   xmlns="http://www.w3.org/2000/svg"
   xmlns:sodipodi="http://sodipodi.sourceforge.net/DTD/sodipodi-0.dtd"
   xmlns:inkscape="http://www.inkscape.org/namespaces/inkscape"
   width="64"
   height="64"
   id="svg2"
   version="1.1"
   inkscape:version="0.48.4 r9939"
   sodipodi:docname="mascot.png">
  <defs
     id="defs4" />
  <sodipodi:namedview
     id="base"
     pagecolor="#ffffff"
     bordercolor="#666666"
     borderopacity="1.0"
     inkscape:pageopacity="0.0"
     inkscape:pageshadow="2"
     inkscape:zoom="4"
     inkscape:cx="9.3750001"
     inkscape:cy="29.124892"
     inkscape:document-units="px"
     inkscape:current-layer="layer1"
     showgrid="false"
     inkscape:window-width="1167"
     inkscape:window-height="827"
     inkscape:window-x="337"
     inkscape:window-y="94"
     inkscape:window-maximized="0" />
  <metadata
     id="metadata7">
    <rdf:RDF>
      <cc:Work
         rdf:about="">
        <dc:format>image/svg+xml</dc:format>
        <dc:type
           rdf:resource="http://purl.org/dc/dcmitype/StillImage" />
        <dc:title></dc:title>
      </cc:Work>
    </rdf:RDF>
  </metadata>
  <g
     inkscape:label="Layer 1"
     inkscape:groupmode="layer"
     id="layer1"
     transform="translate(0,-988.3622)">
    <path
       style="fill:#a9db80;fill-opacity:1;stroke:none"
       d="m 4.7528238,1045.3262 c 0,0 -4.80160107,-14.9934 6.3521892,-32.3838 4.278392,-6.6706 12.601484,-13.0545 21.394985,-13.08095 8.457699,-0.0254 17.388024,6.05505 21.720969,12.30415 10.840288,15.6343 5.776209,33.3137 5.776209,33.3137 0,0 -7.046284,2.6896 -27.497999,2.43 -21.03707,-0.2671 -27.7463532,-2.5831 -27.7463532,-2.5831 z"
       id="path3753"
       inkscape:connector-curvature="0"
       sodipodi:nodetypes="cssscsc" />
    <g
       id="g3780"
       transform="translate(18.5,3.75)">
      <path
         transform="translate(-1,987.8622)"
         d="M 21.5,37.125 C 21.5,42.026527 20.044925,46 18.25,46 16.455075,46 15,42.026527 15,37.125 c 0,-4.901527 1.455075,-8.875 3.25,-8.875 1.794925,0 3.25,3.973473 3.25,8.875 z"
         sodipodi:ry="8.875"
         sodipodi:rx="3.25"
         sodipodi:cy="37.125"
         sodipodi:cx="18.25"
         id="path3755"
         style="fill:#000000;fill-opacity:1;stroke:none"
         sodipodi:type="arc" />
      <path
         transform="translate(39.75,990.1122)"
         d="m -21.75,32.875 c 0,2.416246 -0.839466,4.375 -1.875,4.375 -1.035534,0 -1.875,-1.958754 -1.875,-4.375 0,-2.416246 0.839466,-4.375 1.875,-4.375 1.035534,0 1.875,1.958754 1.875,4.375 z"
         sodipodi:ry="4.375"
         sodipodi:rx="1.875"
         sodipodi:cy="32.875"
         sodipodi:cx="-23.625"
         id="path3757"
         style="fill:#ffffff;fill-opacity:1;stroke:none"
         sodipodi:type="arc" />
    </g>
    <g
       id="g3784"
       transform="translate(18.75,3.75)">
      <path
         transform="translate(10.5,987.7372)"
         d="M 21.5,37.125 C 21.5,42.026527 20.044925,46 18.25,46 16.455075,46 15,42.026527 15,37.125 c 0,-4.901527 1.455075,-8.875 3.25,-8.875 1.794925,0 3.25,3.973473 3.25,8.875 z"
         sodipodi:ry="8.875"
         sodipodi:rx="3.25"
         sodipodi:cy="37.125"
         sodipodi:cx="18.25"
         id="path3755-1"
         style="fill:#000000;fill-opacity:1;stroke:none"
         sodipodi:type="arc" />
      <path
         transform="translate(51.25,989.9872)"
         d="m -21.75,32.875 c 0,2.416246 -0.839466,4.375 -1.875,4.375 -1.035534,0 -1.875,-1.958754 -1.875,-4.375 0,-2.416246 0.839466,-4.375 1.875,-4.375 1.035534,0 1.875,1.958754 1.875,4.375 z"
         sodipodi:ry="4.375"
         sodipodi:rx="1.875"
         sodipodi:cy="32.875"
         sodipodi:cx="-23.625"
         id="path3757-7"
         style="fill:#ffffff;fill-opacity:1;stroke:none"
         sodipodi:type="arc" />
    </g>
    <path
       style="fill:#ffffff;fill-opacity:0.65608467;stroke:none"
       d="m 32,1001.0856 c -10.560181,-0.869 -19.191036,9.7546 -21.25,14.3268 -3.827902,8.5003 -7.909311,14.9576 -5.25,27.9498 1.180892,-15.6182 6.436689,-37.8072 26.5,-42.2766 z"
       id="path3788"
       inkscape:connector-curvature="0"
       sodipodi:nodetypes="cscc" />
  </g>
</svg>
